inDegrees=no
num_controls=7
num_derivatives=13
num_iterations=246
num_multipliers=7
num_parameters=0
num_slacks=7
num_states=26
objective=5.423197
objective_accelerations=0.360439
objective_balance=0.050989
objective_effort=0.352833
objective_height=4.586553
objective_ligament=0.072382
solver_duration=2407.651958
status=Solve_Succeeded
success=true
DataType=double
version=3
OpenSimVersion=4.4-2022-07-23-0e9fedc
endheader
time	/jointset/ground_pelvis/pelvis_tilt/value	/jointset/ground_pelvis/pelvis_tx/value	/jointset/ground_pelvis/pelvis_ty/value	/jointset/hip_l/hip_flexion_l/value	/jointset/hip_l/hip_adduction_l/value	/jointset/hip_l/hip_rotation_l/value	/jointset/back/lumbar_extension/value	/jointset/patellofemoral_l/patellar_flexion_l/value	/jointset/knee_l/knee_flexion_l/value	/jointset/knee_l/knee_adduction_l/value	/jointset/knee_l/knee_rotation_l/value	/jointset/ankle_l/ankle_angle_l/value	/jointset/subtalar_l/subtalar_angle_l/value	/jointset/ground_pelvis/pelvis_tilt/speed	/jointset/ground_pelvis/pelvis_tx/speed	/jointset/ground_pelvis/pelvis_ty/speed	/jointset/hip_l/hip_flexion_l/speed	/jointset/hip_l/hip_adduction_l/speed	/jointset/hip_l/hip_rotation_l/speed	/jointset/back/lumbar_extension/speed	/jointset/patellofemoral_l/patellar_flexion_l/speed	/jointset/knee_l/knee_flexion_l/speed	/jointset/knee_l/knee_adduction_l/speed	/jointset/knee_l/knee_rotation_l/speed	/jointset/ankle_l/ankle_angle_l/speed	/jointset/subtalar_l/subtalar_angle_l/speed	/forceset/tau_hip_flexion_l	/forceset/tau_hip_adduction_l	/forceset/tau_hip_rotation_l	/forceset/tau_knee_flexion_l	/forceset/tau_ankle_angle_l	/forceset/tau_subtalar_angle_l	/forceset/tau_lumbar_extension	lambda_cid13_p0	lambda_cid13_p1	lambda_cid13_p2	lambda_cid13_p3	lambda_cid13_p4	lambda_cid13_p5	lambda_cid14_p0	/jointset/ground_pelvis/pelvis_tilt/accel	/jointset/ground_pelvis/pelvis_tx/accel	/jointset/ground_pelvis/pelvis_ty/accel	/jointset/hip_l/hip_flexion_l/accel	/jointset/hip_l/hip_adduction_l/accel	/jointset/hip_l/hip_rotation_l/accel	/jointset/back/lumbar_extension/accel	/jointset/patellofemoral_l/patellar_flexion_l/accel	/jointset/knee_l/knee_flexion_l/accel	/jointset/knee_l/knee_adduction_l/accel	/jointset/knee_l/knee_rotation_l/accel	/jointset/ankle_l/ankle_angle_l/accel	/jointset/subtalar_l/subtalar_angle_l/accel	gamma_cid13_p0	gamma_cid13_p1	gamma_cid13_p2	gamma_cid13_p3	gamma_cid13_p4	gamma_cid13_p5	gamma_cid14_p0
0	-0.03682272060338752	0.05667758499880406	0.9203415897579494	0.3085811930696054	-0.2956404761238542	-0.3016072362871027	-0.3879500408040475	0.2499276582270888	0.249927658227084	-0.1745329251994329	-0.1745329251994329	-0.0008036543073733089	0.0004376032590965219	0	0	0	0	0	0	0	0	0	0	0	0	0	0.06124974344333074	-0.07802587196320181	-0.02391652635223305	-0.2788386039717363	0.2695301659159746	0.0006491712443748014	0.0264689824616471	43.26508102191841	-9.624750946030506	3.098952666017954	-29.08680235295776	-644.0360740153402	-93.41458965231648	-23.19701104712075	0.5863239366177299	-0.7992513869763156	-0.5424358087035368	5.074990980010488	-0.7442965399596009	2.803688101352587	-6.198459978452989	8.019942784743371	8.01994278474255	1.050588665542117	-0.06260773810392076	2.853746570387373	0.1813213359771817	-1.172698166597774e-08	1.037092322379278e-07	5.600091966171138e-08	5.786949461245243e-09	4.412973685465057e-08	-2.234458154924739e-08	1.557002660819458e-09
0.01	-0.03679150698260598	0.05663829540650306	0.9203151540893394	0.3088272886099901	-0.2956776253509302	-0.3014662147795439	-0.3882580651068425	0.2503206250510746	0.2503206250510693	-0.1744831811800474	-0.1745327970985153	-0.0006636517378164867	0.0004457978229621275	0.006237361615253011	-0.007801851022655174	-0.005264785912276722	0.0489458709294426	-0.007390005087124263	0.02807151901368084	-0.06120415218610278	0.07823542771439614	0.07823542771439276	0.00990603809706765	2.819811307582149e-05	0.0279022650158158	0.001647427298515311	0.05571818592126943	-0.07865520080949366	-0.02304066373078841	-0.272589953388753	0.2604181080758697	0.005594817552477507	0.03123593835033121	40.41089534173024	-11.30520044587844	3.403759098753122	-27.85114835141023	-646.1648731240635	-96.46081948227103	-23.20153785932019	0.6416325463903448	-0.7622406867688598	-0.5151389850885797	4.763394856674224	-0.7304031393746665	2.788963798344998	-6.021286582840371	7.671651891107015	7.671651891107031	0.9539372069088426	0.03568968602805446	2.743730492287139	0.1577077883973179	-3.213030441303795e-08	1.0087365263128e-07	1.128169056708682e-07	2.361757169781699e-08	-2.857008889338084e-08	-6.701798391754139e-08	-4.607067380387236e-09
0.02	-0.03669808169118848	0.05652266955860388	0.9202367427610868	0.3095546448011245	-0.2957874847581354	-0.3010484620824561	-0.3891661096803288	0.251485207977464	0.2514852079774675	-0.1743357021480416	-0.1745323479225997	-0.0002475737130798375	0.00047071753213461	0.01244233412694721	-0.01526725111963474	-0.01039513192852397	0.09625213014940701	-0.01454203602568605	0.05534623790612529	-0.1200040541382708	0.1543232204815642	0.1543232204815618	0.01954510919892674	6.264022673790831e-05	0.05521509103597041	0.003345029061375464	0.05018662839922751	-0.07928452965577125	-0.02216480110931085	-0.266341302805761	0.251306050235773	0.01054046386059737	0.03600289423902023	37.61867730537558	-12.99643773785453	3.710215152993961	-26.79865917718643	-647.4285194785258	-99.42753111993129	-23.21485716456472	0.5798461159059186	-0.7319612018411521	-0.5155478294976436	4.747068638114845	-0.6967017102471317	2.644328077105141	-5.717609931666071	7.590415795297779	7.590415795297836	0.997195266500376	-0.06135893798684739	2.735858771255181	0.1913562288461411	-5.253362716009816e-08	9.803807302463233e-08	1.696328916800249e-07	4.144819393438873e-08	-1.012699146414122e-07	-1.116913862858354e-07	-1.077113742159393e-08
0.03	-0.03654287835630045	0.05633402890653173	0.9201075550699622	0.3107471842069396	-0.2959675966681712	-0.3003623790669376	-0.3906502458162034	0.2534001276706232	0.253400127670628	-0.1740931296810154	-0.1745319367079736	0.0004386508453926474	0.0005129307666954591	0.01859383917717986	-0.02240904610289924	-0.01543187107339386	0.1419945917532289	-0.02143468589103298	0.08174016151487215	-0.1764470477987458	0.2283073353303364	0.2283073353303369	0.02891725211759447	2.680236484897692e-05	0.08192505120138716	0.005109224695218785	0.04455620226529215	-0.07397527689519469	-0.02131343567104756	-0.2603729872586527	0.2439433673712781	0.009814790139195192	0.04080744469176881	35.15316096123145	-12.33351240306716	3.700393274852998	-25.52007834629937	-648.8504784482268	-97.3911834609422	-23.23645636733024	0.6321236684576249	-0.6975053059908894	-0.4961772212556388	4.44865347849223	-0.6787393211714184	2.61737367049706	-5.551225297649307	7.249404085776858	7.249404085777233	0.899440050457066	0.02640911625129719	2.622848469614215	0.1706574565345928	-6.915502048214381e-08	7.495471658714435e-08	2.20049179445561e-07	5.350365377065329e-08	-1.616492302149583e-07	-1.560938757404978e-07	-1.817714283305574e-08
0.04	-0.03632629577713323	0.05607552697274271	0.9199283119345343	0.3123893119401917	-0.2962152736161587	-0.2994162669817845	-0.3926875281315639	0.2560442874634955	0.2560442874634964	-0.1737583925356185	-0.1745316628066368	0.001388831771605198	0.0005731272027709905	0.02471818298243316	-0.02923950746300853	-0.02040622078921811	0.1861697956361075	-0.02805504361609567	0.1073520518331228	-0.2306332900356717	0.3001712404235056	0.3001712404235081	0.03797804487254417	3.517756460746514e-05	0.108006364583976	0.006941669364308053	0.03892577613137075	-0.06866602413462587	-0.02046207023280523	-0.2544046717115362	0.2365806845067817	0.009089116417784789	0.04561199514453141	32.74572761653578	-11.6792817408234	3.690273154774623	-24.41830760304062	-649.4676878386757	-95.27858909274428	-23.26567698364729	0.5744138669100031	-0.6696944772100696	-0.5030699436885191	4.433617093926169	-0.6422432821902951	2.487921419005837	-5.266259646956267	7.166373844177175	7.166373844177077	0.9349252337567515	-0.05251632565742955	2.610129414689642	0.2050060358953336	-8.569843587790052e-08	5.145388021499987e-08	2.703335146699916e-07	6.544003809350943e-08	-2.217745146508861e-07	-2.004907793618895e-07	-2.560875515936818e-08
0.05	-0.03604877532950425	0.0557502971955207	0.919699517101592	0.314465653983628	-0.2965277519943482	-0.2982183974015586	-0.3952553318210849	0.2593967051473188	0.2593967051473211	-0.1733345887651068	-0.1745315467708351	0.002596734995844962	0.0006520496909824334	0.03077823795940534	-0.03575228027974139	-0.02535098634994538	0.2288414324867762	-0.03438967246558165	0.1320875310152922	-0.282560858095524	0.3699584573166115	0.3699584573166095	0.04672561795329889	-4.09523185424906e-06	0.1334692946027592	0.008859505481025253	0.03332620238783744	-0.06584730367462507	-0.01959409723825773	-0.2490904727110509	0.2288246808328203	0.01064734083731474	0.05044029067241684	30.27571273710191	-11.98154355862647	3.804719268567741	-23.28555724397863	-650.3884779551512	-95.22526003446757	-23.30169965752847	0.6206468860336465	-0.6339303440859051	-0.4899607856354883	4.145350653130039	-0.6214777482287187	2.446173310923975	-5.101016919630231	6.831824939981948	6.831824939981346	0.8361485353911803	0.02159282748331791	2.498623862448351	0.1876351755981859	-9.773428050078683e-08	1.565884516851616e-08	3.080839885473875e-07	7.274329033410362e-08	-2.688583959679309e-07	-2.37780888851845e-07	-3.277047241515834e-08
0.06	-0.03571088521751564	0.05536156735809528	0.9194213184283684	0.3169609951300705	-0.2969020576734129	-0.2967772106008908	-0.3983314134980303	0.2634363808656953	0.263436380865696	-0.1728250142257557	-0.1745315783461593	0.00405611733366773	0.0007506430955687112	0.03679211585408414	-0.04193951950368892	-0.03028698884550415	0.269969616237159	-0.04042050379110632	0.1560154959215211	-0.3322888875206035	0.4376228473339033	0.4376228473338974	0.05513219864030704	5.65533663847416e-06	0.1583021873005704	0.01087585263927325	0.02772662864430466	-0.06302858321462429	-0.01872612424372245	-0.2437762737105647	0.2210686771588582	0.01220556525684464	0.05526858620030319	27.85907441303081	-12.29291617656773	3.920349903807227	-22.32164381078356	-650.57346250231	-95.10556666906487	-23.34359746615552	0.5651784504512846	-0.6045877586529635	-0.5013173306548206	4.124926473868978	-0.5814837773980367	2.326418563817692	-4.826351920001748	6.741808469014335	6.74180846901436	0.8667267550074282	-0.04271165266657095	2.484121950495292	0.2247082442014996	-1.095803326700786e-07	-2.065384034846603e-08	3.453067208943819e-07	7.985146332912887e-08	-3.153931655747069e-07	-2.747717649046874e-07	-3.992082566797913e-08
0.07000000000000001	-0.03531325458552722	0.0549125795862728	0.9190936984760514	0.3198602967255225	-0.2973351173609064	-0.2951011828234554	-0.4018937627384161	0.2681424088441258	0.2681424088441233	-0.1722329971968428	-0.174531725685856	0.00576074698885344	0.0008699546138101207	0.04272455628714054	-0.04780451740719127	-0.03524240354895757	0.3096407339079376	-0.0461375825885699	0.1790536990212524	-0.3798289001716916	0.5032318471465382	0.5032318471465337	0.06320968986560947	-2.740285759043785e-05	0.1825165634986354	0.01300526760584467	0.02213533255417306	-0.05940396477020827	-0.01787999247599975	-0.2389984898837785	0.2138107951897109	0.01292007713810849	0.06012461382540149	25.54382362435081	-12.25894730106422	3.984727617099474	-21.26089712007688	-651.0859330194276	-94.27976935200938	-23.39031743205364	0.6058560225084222	-0.5694121315990263	-0.4935274725378586	3.85069942223888	-0.5587909701604936	2.272014343998212	-4.665016880007102	6.417818627445203	6.417818627445393	0.7690669508160145	0.017614791088423	2.374012972305642	0.2098448411462763	-1.187247330495957e-07	-6.841047816589039e-08	3.772866583449024e-07	8.27879344988425e-08	-3.500806669090777e-07	-3.103695318648028e-07	-4.766268360425373e-08
0.08	-0.03485658371265211	0.0544065505703354	0.9187163495902302	0.3231488084993937	-0.2978237420442226	-0.2931988743828333	-0.4059209502937818	0.2734940013986885	0.2734940013986897	-0.171562043926774	-0.1745319600687161	0.007704303909588531	0.001011117625369506	0.04860016403121717	-0.05334776832667297	-0.04023277554631514	0.3478116519209818	-0.05153350295563261	0.201271628558878	-0.425256550516577	0.566735762561458	0.5667357625614546	0.07091944687188612	-1.175329623904858e-05	0.206087640410442	0.01524615130286862	0.01654403646403509	-0.05577934632579074	-0.01703386070823161	-0.234220706057003	0.2065529132205617	0.01363458901937267	0.06498064145049542	23.27745029248991	-12.23253027887595	4.049160313159783	-20.35886293321844	-650.9293690572894	-93.39359418884347	-23.44073319639765	0.5538119126552886	-0.5402383618487957	-0.5083087894356506	3.824886542322123	-0.517252091317865	2.162363851396535	-4.403879458761252	6.320791589471298	6.320791589471306	0.7931799112022615	-0.03297010155051158	2.35546209324365	0.2470019902920161	-1.276948333136435e-07	-1.16905435486569e-07	4.089283509633923e-07	8.545526361531022e-08	-3.840038283549063e-07	-3.458774208189358e-07	-5.54427031330092e-08
0.09	-0.03434161624229039	0.05384670086714298	0.9182888377132714	0.3268119123288705	-0.2983647117300787	-0.2910788353042723	-0.4103917973948474	0.2794704447371804	0.2794704447371821	-0.1708157589204024	-0.1745322264469784	0.009880455189275465	0.001175293559735028	0.05438160684405568	-0.05856759131540645	-0.04527999682221485	0.3845637229547545	-0.05660460758153497	0.2225982764287929	-0.4685716655081202	0.6282044284178084	0.6282044284178022	0.07827373521072027	-3.433596765401302e-05	0.2290357499529543	0.01761017227640458	0.01101328483471173	-0.05264788345016633	-0.01621911320450261	-0.2300901539426381	0.1995724249831306	0.01469251237813407	0.06985379869314731	21.08413788692645	-12.36079726548226	4.129969965535594	-19.42318514820175	-651.1623574491642	-92.87483320453735	-23.4936247708983	0.5885507874476581	-0.5046499836606015	-0.5045656921994083	3.563549307262331	-0.4937093588321736	2.097061513697419	-4.244146891165807	6.00764379010526	6.007643790104827	0.6970045254707118	0.01424933776539854	2.248447568813698	0.2342450164421701	-1.338840489265144e-07	-1.710463990924727e-07	4.327452153251919e-07	8.493412798985146e-08	-4.071438751201113e-07	-3.766899631760025e-07	-6.291868955999175e-08
